<svg xmlns="http://www.w3.org/2000/svg" version="1.1" xmlns:xlink="http://www.w3.org/1999/xlink" xmlns:svgjs="http://svgjs.com/svgjs" width="512" height="512" x="0" y="0" viewBox="0 0 53 53" style="enable-background:new 0 0 512 512" xml:space="preserve" class="">
  <g>
    <script></script>
    <linearGradient xmlns="http://www.w3.org/2000/svg" id="lg1">
      <stop offset="0" stop-color="#4c5c75"></stop>
      <stop offset=".9999999" stop-color="#1d2943"></stop>
    </linearGradient>
    <linearGradient xmlns="http://www.w3.org/2000/svg" id="SVGID_1_" gradientUnits="userSpaceOnUse" x1="26.502" x2="26.502" xmlns:xlink="http://www.w3.org/1999/xlink" xlink:href="#lg1" y1="46.066" y2="48.707"></linearGradient>
    <linearGradient xmlns="http://www.w3.org/2000/svg" id="lg2">
      <stop offset="0" stop-color="#e9e7fc"></stop>
      <stop offset=".2510511" stop-color="#dfdffa"></stop>
      <stop offset=".9999995" stop-color="#bec3f4"></stop>
    </linearGradient>
    <linearGradient xmlns="http://www.w3.org/2000/svg" id="SVGID_2_" gradientTransform="matrix(-1 0 0 1 -74.001 0)" gradientUnits="userSpaceOnUse" x1="-132.701" x2="-63.96" xmlns:xlink="http://www.w3.org/1999/xlink" xlink:href="#lg2" y1="29.201" y2="29.124"></linearGradient>
    <linearGradient xmlns="http://www.w3.org/2000/svg" id="SVGID_3_" gradientTransform="matrix(-1 0 0 1 -74.001 0)" gradientUnits="userSpaceOnUse" x1="-95.297" x2="-62.954" xmlns:xlink="http://www.w3.org/1999/xlink" xlink:href="#lg2" y1="29.177" y2="29.177"></linearGradient>
    <linearGradient xmlns="http://www.w3.org/2000/svg" id="SVGID_4_" gradientUnits="userSpaceOnUse" x1="40.017" x2="24.194" y1="33.967" y2="18.145">
      <stop offset="0" stop-color="#4c5c75" stop-opacity="0"></stop>
      <stop offset=".315194" stop-color="#495972" stop-opacity=".315"></stop>
      <stop offset=".5700969" stop-color="#404f68" stop-opacity=".57"></stop>
      <stop offset=".8031876" stop-color="#303e57" stop-opacity=".803"></stop>
      <stop offset=".9999999" stop-color="#1d2943"></stop>
    </linearGradient>
    <radialGradient xmlns="http://www.w3.org/2000/svg" id="SVGID_5_" cx="27.173" cy="13.617" gradientUnits="userSpaceOnUse" r="13.931">
      <stop offset="0" stop-color="#ffdd95"></stop>
      <stop offset=".9999999" stop-color="#f9a83d"></stop>
    </radialGradient>
    <linearGradient xmlns="http://www.w3.org/2000/svg" id="SVGID_6_" gradientUnits="userSpaceOnUse" x1="26.579" x2="26.579" xmlns:xlink="http://www.w3.org/1999/xlink" xlink:href="#lg1" y1="33.147" y2="35.448"></linearGradient>
    <linearGradient xmlns="http://www.w3.org/2000/svg" id="SVGID_7_" gradientUnits="userSpaceOnUse" x1="26.579" x2="26.579" xmlns:xlink="http://www.w3.org/1999/xlink" xlink:href="#lg1" y1="29.081" y2="31.382"></linearGradient>
    <g xmlns="http://www.w3.org/2000/svg" id="_x35_2">
      <g>
        <g>
          <g>
            <g>
              <g>
                <g>
                  <g>
                    <path d="m2.5792451 18.5636311v28.1880589c0 1.7233582 1.6695795 2.972847 3.3175302 2.4450722 4.7501106-1.5402679 9.801713-1.7772675 14.6487265-.7109337.6032467.1292496 1.0771141.5709038 1.2817688 1.1525192.1723747.5169945.6570892.8616791 1.2064285.8616791h6.9258366c.5492725 0 1.033987-.3446846 1.217144-.8616791.1938725-.5816154.6785202-1.0232697 1.2709866-1.1525192 4.8470116-1.0663338 9.8986816-.8293343 14.6595078.7109337 1.6372337.5277748 3.3175316-.721714 3.3175316-2.4450722v-28.1880589c0-1.0663319-.6678085-2.0141983-1.6695824-2.4127254-7.1735497-2.8113174-15.2303429-2.5851002-22.253149.7216473-7.0335865-3.3067474-15.0903797-3.5329647-22.2639313-.7216473-1.0017084.3985271-1.6587979 1.3463935-1.6587979 2.4127254z" fill="url(#SVGID_1_)" data-original="url(#SVGID_1_)"></path>
                    <g>
                      <g>
                        <path d="m48.7559586 12.9815807c.9954605.392086 1.6659775 1.336112 1.6659775 2.4059877v28.1896858c0 1.7261696-1.6766891 2.9685593-3.3191376 2.4374886-6.7428627-2.1803169-14.1121597-1.7431297-20.6037922 1.3115692v-33.625515c7.0265331-3.3063964 15.0813541-3.5461349 22.2569523-.7192163z" fill="url(#SVGID_2_)" data-original="url(#SVGID_2_)"></path>
                      </g>
                      <g>
                        <path d="m4.2412744 12.9815807c-.9954598.392086-1.6659784 1.336112-1.6659784 2.4059877v28.1896858c0 1.7261696 1.6766872 2.9685593 3.3191376 2.4374886 6.7428632-2.1803169 14.1121578-1.7431297 20.6037903 1.3115692v-33.625515c-7.0265309-3.3063964-15.0813528-3.5461349-22.2569495-.7192163z" fill="url(#SVGID_3_)" data-original="url(#SVGID_3_)"></path>
                      </g>
                    </g>
                  </g>
                  <g>
                    <g>
                      <path d="m24.2916012 38.1599274v2.6127663c0 .7509995-.7513733 1.275444-1.451292 1.0032082-5.3394947-2.0768013-11.2675743-2.0768013-16.6071053-.0000343-.6999187.2722282-1.4512854-.2522163-1.4512854-1.003212v-2.6127739c0-.4280891.25037-.8251266.6431417-.9954033 5.8123031-2.5197411 12.4111538-2.5197411 18.2234097.0000496.392767.1702765.6431313.567314.6431313.9953994z" fill="#e9e7fc" data-original="#e9e7fc"></path>
                    </g>
                  </g>
                  <g>
                    <g>
                      <path d="m48.215313 38.1599274v2.6127663c0 .7509995-.7513733 1.275444-1.4512939 1.0032082-5.3394928-2.0768013-11.2675743-2.0768013-16.6071033-.0000343-.6999187.2722282-1.4512863-.2522163-1.4512863-1.003212v-2.6127739c0-.4280891.25037-.8251266.6431427-.9954033 5.8123035-2.5197411 12.4111538-2.5197411 18.2234097.0000496.3927648.1702765.6431311.567314.6431311.9953994z" fill="#e9e7fc" data-original="#e9e7fc"></path>
                    </g>
                  </g>
                  <g>
                    <g>
                      <path d="m24.2916012 20.0216198v2.6127625c0 .7509995-.7513733 1.2754459-1.451292 1.003212-5.3394947-2.0768051-11.2675743-2.0768051-16.6071053-.0000343-.6999183.2722281-1.4512849-.2522184-1.4512849-1.003214v-2.612772c0-.428093.25037-.8251305.6431417-.9954052 5.8123031-2.519743 12.4111538-2.5197411 18.2234097.0000496.3927665.1702767.6431308.5673123.6431308.9954014z" fill="#e9e7fc" data-original="#e9e7fc"></path>
                    </g>
                  </g>
                  <g>
                    <g>
                      <path d="m24.2916012 29.0907745v2.6127644c0 .7509975-.7513733 1.2754459-1.451292 1.0032101-5.3394947-2.0768051-11.2675743-2.0768051-16.6071053-.0000343-.6999187.2722282-1.4512854-.2522202-1.4512854-1.0032139v-2.612772c0-.428093.25037-.8251305.6431417-.9954052 5.8123031-2.519743 12.4111538-2.5197411 18.2234097.0000515.392767.1702747.6431313.5673103.6431313.9953994z" fill="#e9e7fc" data-original="#e9e7fc"></path>
                    </g>
                  </g>
                  <g>
                    <g>
                      <path d="m48.215313 20.0216198v2.6127625c0 .7509995-.7513733 1.2754459-1.4512939 1.003212-5.3394928-2.0768051-11.2675743-2.0768051-16.6071033-.0000343-.6999187.2722282-1.4512863-.2522182-1.4512863-1.0032139v-2.612772c0-.428093.25037-.8251305.6431427-.9954052 5.8123035-2.519743 12.4111538-2.5197411 18.2234097.0000496.3927648.1702766.6431311.5673122.6431311.9954013z" fill="#e9e7fc" data-original="#e9e7fc"></path>
                    </g>
                  </g>
                  <g>
                    <g>
                      <path d="m48.215313 29.0907745v2.6127644c0 .7509975-.7513733 1.2754459-1.4512939 1.0032101-5.3394928-2.0768051-11.2675743-2.0768051-16.6071033-.0000343-.6999187.2722282-1.4512863-.2522202-1.4512863-1.0032139v-2.612772c0-.428093.25037-.8251305.6431427-.9954052 5.8123035-2.519743 12.4111538-2.5197411 18.2234097.0000515.3927648.1702747.6431311.5673103.6431311.9953994z" fill="#e9e7fc" data-original="#e9e7fc"></path>
                    </g>
                  </g>
                </g>
              </g>
            </g>
          </g>
        </g>
        <g>
          <path d="m50.4215508 22.9714394-11.9364319-11.9364663c-.0026741 0-.0053482.0001354-.0080223.0001354l-1.0506401 3.2313261-9.8355904 8.6007605-7.6672936 12.4074669 16.0371246 9.4975357c1.8077698-.1617813 3.626339-.1481094 5.4319458.0408859l9.0289078-9.0288391v-12.8128051z" fill="url(#SVGID_4_)" data-original="url(#SVGID_4_)"></path>
        </g>
        <g>
          <g>
            <g>
              <g>
                <path d="m39.0941544 13.7479782c-.632679-5.8110647-5.3375817-10.5251994-11.1475563-11.1679242-7.6437225-.8455527-14.1143875 5.1168413-14.1143875 12.5897388 0 4.308589 2.1512632 8.1134939 5.4407978 10.3954973.7309227.5070152 1.1804314 1.3262997 1.1804314 2.215868v1.982132h12.097086v-1.9792366c0-.8967247.4596138-1.7171555 1.1956139-2.2293587 3.6382864-2.5316884 5.8791655-6.9284741 5.3480147-11.8067166z" fill="url(#SVGID_5_)" data-original="url(#SVGID_5_)"></path>
                <path d="m31.6743736 31.9399853h-10.1907577c-1.1217232 0-2.0310612.9093952-2.0310612 2.0311184v.0036583c0 1.1217804.909338 2.0311165 2.0310612 2.0311165h10.1907578c1.1217232 0 2.0311165-.9093361 2.0311165-2.0311165v-.0036583c-.0000001-1.1217232-.9093934-2.0311184-2.0311166-2.0311184z" fill="url(#SVGID_6_)" data-original="url(#SVGID_6_)"></path>
                <path d="m31.6743736 27.8740921h-10.1907577c-1.1217232 0-2.0310612.9093933-2.0310612 2.0311165v.0036602c0 1.1217785.909338 2.0311165 2.0310612 2.0311165h10.1907578c1.1217232 0 2.0311165-.909338 2.0311165-2.0311165v-.0036602c-.0000001-1.1217232-.9093934-2.0311165-2.0311166-2.0311165z" fill="url(#SVGID_7_)" data-original="url(#SVGID_7_)"></path>
              </g>
            </g>
          </g>
        </g>
      </g>
      <path d="m26.1149921 22.3240032c-1.2590237 0-1.9662952-1.5556679-1.0251217-2.4994202.9539204-.943552 2.5009842-.2265129 2.5009842 1.0251217 0 .4069195-.1447678.757494-.4303932 1.0439034-.2856273.2848434-.6377678.4303951-1.0454693.4303951zm-.7841014-4.4135532c-.2245884-.2065907-.3443165-.4710884-.3443165-.7653217 0-3.368207 3.5589752-3.9685879 3.5589752-5.5575714 0-.7621899-.251976-1.7747917-2.4305573-1.7747917-.7728462 0-1.6378841.1820726-2.2936134.5853367-1.2247849.8296938-2.5671864-1.0127678-1.1018105-1.8937368 2.3117313-1.4632063 5.3866634-1.1679883 6.898838.0860786 1.3903751 1.1542263 1.5684814 3.1556778.9977341 4.3555965-.7100105 1.5073175-2.0299568 1.9230967-2.949379 3.0988436-.5899143.7547722-.0739059 1.308588-.7035007 1.8686962-.2285003.2003288-1.2100181.3832759-1.6323699-.00313z" fill="#ffffff" data-original="#ffffff"></path>
    </g>
  </g>
</svg>
